<?xml version="1.0" encoding="UTF-8"?>
<svg xmlns="http://www.w3.org/2000/svg" width="105" height="86" xmlns:xlink="http://www.w3.org/1999/xlink" viewBox="0 0 105 86">
  <defs>
    <style>
      .uuid-5bc48e4d-3fa9-4d00-ba22-34c48a650ab8 {
        isolation: isolate;
      }

      .uuid-3c56bbfb-5ddd-4d95-9b06-75665b8584e7 {
        fill: url(#uuid-4de6e59d-9f2b-4806-ba68-92b554528cf2);
      }

      .uuid-3c56bbfb-5ddd-4d95-9b06-75665b8584e7, .uuid-1958945f-ed0a-4545-83ea-d5aaf76f9edd {
        mix-blend-mode: multiply;
      }

      .uuid-fc2f8e9f-0a84-4c6c-8480-62942d13382f {
        fill: #346eaf;
      }

      .uuid-dbd66a87-e94b-4bca-a695-043986ec1767 {
        fill: #08304e;
      }

      .uuid-1958945f-ed0a-4545-83ea-d5aaf76f9edd {
        fill: url(#uuid-05baa9a0-fe1b-4346-9512-cad2a435af28);
      }

      .uuid-0bede897-1c7a-4b30-8889-bc40ff7fdecc {
        fill: #62b4e3;
      }
    </style>
    <linearGradient id="uuid-05baa9a0-fe1b-4346-9512-cad2a435af28" x1="33.3" y1="50.7" x2="42.2" y2="45.7" gradientTransform="matrix(1, 0, 0, 1, 0, 0)" gradientUnits="userSpaceOnUse">
      <stop offset="0" stop-color="#fff"/>
      <stop offset="1" stop-color="#000"/>
    </linearGradient>
    <linearGradient id="uuid-4de6e59d-9f2b-4806-ba68-92b554528cf2" x1="68.2" y1="51.3" x2="77.8" y2="47.4" xlink:href="#uuid-05baa9a0-fe1b-4346-9512-cad2a435af28"/>
  </defs>
  <g class="uuid-5bc48e4d-3fa9-4d00-ba22-34c48a650ab8">
    <g id="uuid-48a404a3-4134-42fa-9b6b-e294d3b14347" data-name="Layer 2">
      <g id="uuid-831be3e3-6590-44ce-b929-c434bd60d0e1" data-name="Capa 1">
        <g>
          <path class="uuid-0bede897-1c7a-4b30-8889-bc40ff7fdecc" d="M100.1,47.9c-10.5,8.1-15.7,1.7-15.7-5.3V7.9c-1.5-4.6-5.8-7.9-10.8-7.9,0,0,0,.1,0,.2V39.3c0,21.8,12.5,28.1,31.5,17.3l-4.9-8.7Z"/>
          <path class="uuid-fc2f8e9f-0a84-4c6c-8480-62942d13382f" d="M73.4,38.6h0c0,7.2-5.8,13.1-13,13.1h0c-7.1,0-13-5.9-13-13.1v-15.6c-1.5-4.6-5.8-7.9-10.8-7.9,0,0,0,.1,0,.2v23.4c0,13.2,10.7,24,23.8,24h0c6.5,0,12.5-2.7,16.8-7,0,0-3.8-3.9-3.8-17.1Z"/>
          <path class="uuid-fc2f8e9f-0a84-4c6c-8480-62942d13382f" d="M36.7,15.1v23.5c0,7.2-5.8,13.1-13,13.1h0c-7.1,0-13-5.9-13-13.1v-15.6C9.3,18.4,5,15.1,0,15.1c0,0,0,.1,0,.2v23.4c0,13.2,10.7,24,23.8,24h0c13.1,0,23.8-10.8,23.8-24v-12c0-1.5-.1-3-.4-4.5-1.7-4.2-5.7-7.1-10.4-7.2Z"/>
          <path class="uuid-1958945f-ed0a-4545-83ea-d5aaf76f9edd" d="M36.7,38.8c0,5.4-3.5,10.1-8.2,12v11.4c5.4-1.1,10.2-4.1,13.6-8.3-3.4-4.1-5.4-9.4-5.4-15.1Z"/>
          <path class="uuid-3c56bbfb-5ddd-4d95-9b06-75665b8584e7" d="M73.4,39.3v-.3c-.2,5.3-3.5,9.9-8.2,11.7v11.4c4.6-1,8.8-3.3,12-6.5-2.5-3.8-3.8-9.2-3.8-16.4Z"/>
          <path class="uuid-dbd66a87-e94b-4bca-a695-043986ec1767" d="M14.6,82.2c0,.6,0,1.1-.3,1.6-.2,.4-.5,.8-.8,1.1-.3,.3-.8,.5-1.2,.7-.5,.2-1,.2-1.6,.2s-1.3-.1-1.8-.4c-.5-.2-1-.6-1.3-1-.3,.4-.8,.8-1.3,1s-1.1,.4-1.8,.4-1.1,0-1.5-.2c-.5-.2-.9-.4-1.2-.7-.3-.3-.6-.7-.8-1.1-.2-.4-.3-1-.3-1.6v-8.7H3.3v7.8c0,.6,.1,1.1,.4,1.3,.2,.3,.6,.4,1,.4s.8-.2,1.1-.5c.3-.3,.4-.8,.4-1.5v-7.6h2.8v7.6c0,.7,.1,1.2,.4,1.5,.3,.3,.6,.5,1.1,.5s.8-.1,1-.4c.2-.3,.4-.7,.4-1.3v-7.8h2.8v8.7Z"/>
          <path class="uuid-dbd66a87-e94b-4bca-a695-043986ec1767" d="M31,76.9c0-.6,0-1.1,.3-1.6,.2-.4,.5-.8,.8-1.1,.3-.3,.8-.5,1.2-.7,.5-.2,1-.2,1.6-.2s1.3,.1,1.8,.4c.5,.2,1,.6,1.3,1,.3-.4,.8-.8,1.3-1s1.1-.4,1.8-.4,1.1,0,1.5,.2c.5,.2,.9,.4,1.2,.7,.3,.3,.6,.7,.8,1.1,.2,.4,.3,1,.3,1.6v8.7h-2.8v-7.8c0-.6-.1-1.1-.4-1.3-.2-.3-.6-.4-1-.4s-.8,.2-1.1,.5c-.3,.3-.4,.8-.4,1.5v7.6h-2.8v-7.6c0-.7-.1-1.2-.4-1.5-.3-.3-.6-.5-1.1-.5s-.8,.1-1,.4c-.2,.3-.4,.7-.4,1.3v7.8h-2.8v-8.7Z"/>
          <path class="uuid-dbd66a87-e94b-4bca-a695-043986ec1767" d="M72,85.7c0,0-.2,0-.5,0-.2,0-.5,0-.9,.1-.4,0-.8,0-1.2,0s-1,0-1.5,0c-.9,0-1.6,0-2.2-.2-.6-.2-1-.4-1.4-.7s-.6-.6-.7-1c-.1-.4-.2-.8-.2-1.2,0-1.1,.3-1.9,1-2.4,.7-.5,1.7-.7,3.2-.7s.7,0,.9,0c.2,0,.4,0,.6,0,0-.4-.2-.8-.5-1-.3-.2-.9-.4-1.6-.4s-.7,0-.9,0c-.3,0-.5,0-.7,.2-.2,0-.3,.1-.5,.2-.1,0-.2,.1-.2,.1,0,0,0,0-.1-.1,0,0-.1-.2-.2-.3,0-.1-.1-.2-.2-.4,0-.1,0-.3,0-.5,0-1.1,1-1.6,3.1-1.6s1.3,0,1.9,.2c.6,.1,1.1,.3,1.5,.7,.4,.3,.8,.7,1,1.2s.4,1.1,.4,1.9v5.5Zm-2.8-3.8c-.1,0-.3,0-.5,0-.2,0-.5,0-.9,0s-.6,0-.8,0c-.2,0-.4,.1-.5,.2-.1,.1-.2,.2-.2,.4,0,.1,0,.3,0,.4s0,.2,0,.3,.1,.2,.2,.3c.1,0,.3,.2,.5,.2s.5,.1,.9,.1,.6,0,.8,0,.4,0,.5,0v-2Z"/>
          <path class="uuid-dbd66a87-e94b-4bca-a695-043986ec1767" d="M73.4,75c0-.5,.1-.8,.4-1,.3-.2,.6-.3,1-.3s.6,0,.8,.1,.4,.1,.5,.2v2.5h2c.5,0,.9,.1,1.1,.3,.2,.2,.3,.5,.3,1s0,.6-.1,.9-.2,.5-.2,.5h-3.1v2.9c0,.3,0,.5,.1,.7,0,.2,.2,.3,.3,.4,.1,0,.3,.2,.4,.2s.3,0,.5,0c.3,0,.6,0,.9-.2,.3-.1,.5-.2,.6-.3l1.1,2c-.1,0-.3,.2-.4,.3s-.4,.2-.7,.3c-.3,.1-.6,.2-.9,.3-.3,0-.7,.1-1.1,.1-1.1,0-1.9-.3-2.5-.9-.6-.6-.9-1.4-.9-2.4v-7.7Z"/>
          <path class="uuid-dbd66a87-e94b-4bca-a695-043986ec1767" d="M56.1,74.6c0-.5,.1-.8,.4-1,.3-.2,.6-.3,1.1-.3s.6,0,.9,.1,.4,.1,.5,.2v8.3c0,.3,0,.5,.1,.7,0,.2,.2,.3,.3,.4,.1,.1,.3,.2,.4,.2s.3,0,.5,0c.3,0,.6,0,.9-.2,.3-.1,.5-.2,.6-.3l1.1,2.1c-.1,.1-.3,.2-.5,.3s-.4,.2-.7,.4c-.3,.1-.6,.2-1,.3-.4,0-.7,.1-1.1,.1-1.1,0-2-.3-2.6-.9-.6-.6-.9-1.5-.9-2.5v-7.9Z"/>
          <path class="uuid-dbd66a87-e94b-4bca-a695-043986ec1767" d="M89.1,85.7c0,0-.2,0-.5,0-.2,0-.5,0-.9,.1-.4,0-.8,0-1.2,0s-1,0-1.5,0c-.9,0-1.6,0-2.2-.2-.6-.2-1-.4-1.4-.7s-.6-.6-.7-1c-.1-.4-.2-.8-.2-1.2,0-1.1,.3-1.9,1-2.4,.7-.5,1.7-.7,3.2-.7s.7,0,.9,0c.2,0,.4,0,.6,0,0-.4-.2-.8-.5-1-.3-.2-.9-.4-1.6-.4s-.7,0-.9,0c-.3,0-.5,0-.7,.2-.2,0-.3,.1-.5,.2-.1,0-.2,.1-.2,.1,0,0,0,0-.1-.1,0,0-.1-.2-.2-.3,0-.1-.1-.2-.2-.4,0-.1,0-.3,0-.5,0-1.1,1-1.6,3.1-1.6s1.3,0,1.9,.2c.6,.1,1.1,.3,1.5,.7,.4,.3,.8,.7,1,1.2s.4,1.1,.4,1.9v5.5Zm-2.8-3.8c-.1,0-.3,0-.5,0-.2,0-.5,0-.9,0s-.6,0-.8,0c-.2,0-.4,.1-.5,.2-.1,.1-.2,.2-.2,.4,0,.1,0,.3,0,.4s0,.2,0,.3,.1,.2,.2,.3c.1,0,.3,.2,.5,.2s.5,.1,.9,.1,.6,0,.8,0,.4,0,.5,0v-2Z"/>
          <path class="uuid-dbd66a87-e94b-4bca-a695-043986ec1767" d="M90.4,79.8c0-.6,0-1.1,.3-1.6,.2-.4,.5-.8,.8-1.1,.3-.3,.8-.5,1.2-.7,.5-.2,1-.2,1.6-.2s1.3,.1,1.8,.4c.5,.2,1,.6,1.3,1,.3-.4,.8-.8,1.3-1s1.1-.4,1.8-.4,1.1,0,1.5,.2c.5,.2,.9,.4,1.2,.7,.3,.3,.6,.7,.8,1.1,.2,.4,.3,1,.3,1.6v6h-2.8v-5.1c0-.6-.1-1.1-.4-1.3-.2-.3-.6-.4-1-.4s-.8,.2-1.1,.5c-.3,.3-.4,.8-.4,1.5v4.9h-2.8v-4.9c0-.7-.1-1.2-.4-1.5-.3-.3-.6-.5-1.1-.5s-.8,.1-1,.4c-.2,.3-.4,.7-.4,1.3v5.1h-2.8v-6Z"/>
          <rect class="uuid-dbd66a87-e94b-4bca-a695-043986ec1767" x="48.1" y="80.3" width="4.8" height="2.2" rx="1" ry="1"/>
          <path class="uuid-dbd66a87-e94b-4bca-a695-043986ec1767" d="M28.5,77c-.3-.7-.8-1.4-1.3-1.9-.6-.6-1.2-1-1.9-1.3-.7-.3-1.5-.5-2.4-.5s-1.6,.2-2.4,.5c-.7,.3-1.4,.7-1.9,1.3-.6,.6-1,1.2-1.3,1.9-.3,.7-.5,1.6-.5,2.5s.2,1.7,.5,2.5c.3,.7,.8,1.4,1.3,1.9,.6,.6,1.2,1,1.9,1.3,.7,.3,1.5,.5,2.4,.5s1.6-.2,2.4-.5c.7-.3,1.4-.7,1.9-1.3,.6-.6,1-1.2,1.3-1.9,.3-.7,.5-1.6,.5-2.5s-.2-1.7-.5-2.5Zm-5.6,6.3c-2,0-3.6-1.7-3.6-3.9s1.6-3.9,3.6-3.9,3.6,1.7,3.6,3.9-1.6,3.9-3.6,3.9Z"/>
        </g>
      </g>
    </g>
  </g>
</svg>