<?xml version="1.0" encoding="UTF-8"?>
<svg xmlns="http://www.w3.org/2000/svg" width="122.1" height="100" xmlns:xlink="http://www.w3.org/1999/xlink" viewBox="0 0 122.1 100">
  <defs>
    <style>
      .uuid-1dca8292-2180-41c6-939e-9adf832d23a4 {
        fill: #fff;
      }

      .uuid-95d41b96-4531-4583-8455-f2ecb457aa1e {
        fill: url(#uuid-ec3dfefb-c4bd-4e71-a21d-304c22f79702);
      }

      .uuid-95d41b96-4531-4583-8455-f2ecb457aa1e, .uuid-349b9ed9-8a6b-4052-876a-1a9edf3834f2 {
        mix-blend-mode: multiply;
      }

      .uuid-e422130c-300e-4364-b542-9f98d52a78e2 {
        isolation: isolate;
      }

      .uuid-4ce2d896-2bf3-4463-b54f-5dda0d028110 {
        fill: #346eaf;
      }

      .uuid-349b9ed9-8a6b-4052-876a-1a9edf3834f2 {
        fill: url(#uuid-806f39ce-857a-4b12-86b4-d403ed1ab513);
      }

      .uuid-21ce1f68-3f56-4273-a7bd-6e7b61ab6b07 {
        fill: #62b4e3;
      }
    </style>
    <linearGradient id="uuid-ec3dfefb-c4bd-4e71-a21d-304c22f79702" x1="38.7" y1="59" x2="49" y2="53.2" gradientTransform="matrix(1, 0, 0, 1, 0, 0)" gradientUnits="userSpaceOnUse">
      <stop offset="0" stop-color="#fff"/>
      <stop offset="1" stop-color="#000"/>
    </linearGradient>
    <linearGradient id="uuid-806f39ce-857a-4b12-86b4-d403ed1ab513" x1="79.3" y1="59.6" x2="90.5" y2="55.1" xlink:href="#uuid-ec3dfefb-c4bd-4e71-a21d-304c22f79702"/>
  </defs>
  <g class="uuid-e422130c-300e-4364-b542-9f98d52a78e2">
    <g id="uuid-987c9e92-f469-47fa-ae42-39b702750a24" data-name="Layer 2">
      <g id="uuid-6b6064d6-9675-49b2-ad78-cd57d35bcde1" data-name="Capa 1">
        <g>
          <path class="uuid-21ce1f68-3f56-4273-a7bd-6e7b61ab6b07" d="M116.4,55.7c-12.2,9.4-18.3,2-18.3-6.1V9.2C96.4,3.9,91.4,0,85.6,0c0,0,0,.2,0,.2V45.7c0,25.3,14.5,32.7,36.6,20.1l-5.7-10.1Z"/>
          <path class="uuid-4ce2d896-2bf3-4463-b54f-5dda0d028110" d="M85.4,44.8h0c0,8.4-6.8,15.2-15.1,15.2h0c-8.3,0-15.1-6.8-15.1-15.2V26.7c-1.8-5.3-6.7-9.2-12.6-9.2,0,0,0,.2,0,.2v27.3c0,15.3,12.4,27.9,27.6,27.9h0c7.6,0,14.5-3.1,19.5-8.2,0,0-4.4-4.6-4.4-19.9Z"/>
          <path class="uuid-4ce2d896-2bf3-4463-b54f-5dda0d028110" d="M42.7,17.5v27.3c0,8.4-6.8,15.2-15.1,15.2h0c-8.3,0-15.1-6.8-15.1-15.2V26.7C10.8,21.4,5.9,17.6,0,17.5c0,0,0,.2,0,.2v27.3c0,15.3,12.4,27.9,27.6,27.9h0c15.2,0,27.6-12.5,27.6-27.9v-13.9c0-1.8-.2-3.5-.5-5.2-2-4.8-6.6-8.3-12.1-8.4Z"/>
          <path class="uuid-95d41b96-4531-4583-8455-f2ecb457aa1e" d="M42.7,45.1c0,6.3-4,11.7-9.6,13.9v13.3c6.3-1.3,11.9-4.8,15.8-9.6-3.9-4.8-6.3-10.9-6.3-17.6Z"/>
          <path class="uuid-349b9ed9-8a6b-4052-876a-1a9edf3834f2" d="M85.4,45.7v-.3c-.2,6.2-4.1,11.5-9.5,13.6v13.3c5.4-1.1,10.2-3.8,14-7.6-2.9-4.4-4.4-10.7-4.4-19Z"/>
          <path class="uuid-1dca8292-2180-41c6-939e-9adf832d23a4" d="M17,95.5c0,.7-.1,1.3-.3,1.8-.2,.5-.6,1-1,1.3-.4,.4-.9,.6-1.4,.8-.6,.2-1.2,.3-1.8,.3s-1.5-.1-2.1-.4c-.6-.3-1.1-.7-1.5-1.2-.4,.5-.9,.9-1.5,1.2s-1.3,.4-2.1,.4-1.2,0-1.8-.3c-.6-.2-1-.4-1.4-.8-.4-.4-.7-.8-1-1.3-.2-.5-.3-1.1-.3-1.8v-10.1H3.9v9.1c0,.7,.1,1.2,.4,1.5,.3,.3,.7,.5,1.2,.5s.9-.2,1.3-.6c.3-.4,.5-1,.5-1.8v-8.8h3.2v8.8c0,.8,.2,1.4,.5,1.8,.3,.4,.7,.6,1.3,.6s.9-.2,1.2-.5c.3-.3,.4-.8,.4-1.5v-9.1h3.2v10.1Z"/>
          <path class="uuid-1dca8292-2180-41c6-939e-9adf832d23a4" d="M36,89.5c0-.7,.1-1.3,.3-1.8,.2-.5,.6-1,1-1.3,.4-.4,.9-.6,1.4-.8,.6-.2,1.2-.3,1.8-.3s1.5,.1,2.1,.4c.6,.3,1.1,.7,1.5,1.2,.4-.5,.9-.9,1.5-1.2s1.3-.4,2.1-.4,1.2,0,1.8,.3c.6,.2,1,.4,1.4,.8,.4,.4,.7,.8,1,1.3,.2,.5,.3,1.1,.3,1.8v10.1h-3.2v-9.1c0-.7-.1-1.2-.4-1.5-.3-.3-.7-.5-1.2-.5s-.9,.2-1.3,.6c-.3,.4-.5,1-.5,1.8v8.8h-3.2v-8.8c0-.8-.2-1.4-.5-1.8-.3-.4-.7-.6-1.3-.6s-.9,.2-1.2,.5c-.3,.3-.4,.8-.4,1.5v9.1h-3.2v-10.1Z"/>
          <path class="uuid-1dca8292-2180-41c6-939e-9adf832d23a4" d="M83.8,99.6c0,0-.3,0-.5,0-.3,0-.6,0-1,.1-.4,0-.9,0-1.4,.1-.5,0-1.1,0-1.7,0-1,0-1.9,0-2.5-.3-.7-.2-1.2-.4-1.6-.8s-.7-.7-.8-1.1c-.2-.4-.2-.9-.2-1.4,0-1.3,.4-2.2,1.2-2.8,.8-.6,2-.8,3.7-.8s.8,0,1.1,0c.3,0,.5,0,.7,0,0-.5-.2-.9-.6-1.2-.4-.3-1-.4-1.9-.4s-.8,0-1.1,0c-.3,0-.6,.1-.8,.2-.2,0-.4,.1-.5,.2-.1,0-.2,.1-.3,.2,0,0,0,0-.2-.2,0,0-.2-.2-.2-.3,0-.1-.2-.3-.2-.5,0-.2,0-.4,0-.6,0-1.2,1.2-1.8,3.6-1.8s1.5,0,2.2,.2c.7,.1,1.3,.4,1.8,.8,.5,.4,.9,.8,1.2,1.4s.4,1.3,.4,2.2v6.4Zm-3.2-4.4c-.1,0-.3,0-.5,0-.2,0-.6,0-1,0s-.7,0-1,.1c-.3,0-.4,.2-.6,.3-.1,.1-.2,.3-.3,.4,0,.2,0,.3,0,.5s0,.3,0,.4,.1,.3,.3,.4c.1,.1,.3,.2,.6,.3s.6,.1,1.1,.1,.7,0,1,0,.5,0,.6,0v-2.3Z"/>
          <path class="uuid-1dca8292-2180-41c6-939e-9adf832d23a4" d="M85.3,87.2c0-.6,.2-.9,.5-1.2,.3-.2,.7-.3,1.2-.3s.7,0,1,.1,.5,.2,.6,.2v2.9h2.3c.6,0,1,.1,1.3,.4,.3,.3,.4,.6,.4,1.1s0,.7-.2,1-.2,.5-.2,.6h-3.6v3.3c0,.3,0,.6,.1,.8,0,.2,.2,.3,.3,.5,.1,.1,.3,.2,.5,.2s.4,0,.5,0c.4,0,.7,0,1-.2,.3-.1,.5-.2,.7-.3l1.3,2.3c-.1,.1-.3,.2-.5,.4s-.5,.3-.8,.4c-.3,.1-.7,.2-1.1,.3-.4,0-.8,.1-1.3,.1-1.3,0-2.2-.3-2.9-1-.7-.7-1.1-1.6-1.1-2.8v-8.9Z"/>
          <path class="uuid-1dca8292-2180-41c6-939e-9adf832d23a4" d="M65.3,86.8c0-.6,.2-1,.5-1.2,.3-.2,.7-.4,1.3-.4s.7,0,1,.1,.5,.2,.6,.2v9.7c0,.3,0,.6,.1,.8,0,.2,.2,.4,.4,.5,.1,.1,.3,.2,.5,.2s.4,0,.6,0c.4,0,.7,0,1.1-.2,.3-.1,.5-.2,.7-.3l1.3,2.4c-.1,.1-.3,.2-.5,.4s-.5,.3-.8,.4c-.3,.1-.7,.2-1.1,.3-.4,0-.8,.1-1.3,.1-1.3,0-2.3-.4-3-1.1-.7-.7-1.1-1.7-1.1-2.9v-9.2Z"/>
          <path class="uuid-1dca8292-2180-41c6-939e-9adf832d23a4" d="M103.6,99.6c0,0-.3,0-.5,0-.3,0-.6,0-1,.1-.4,0-.9,0-1.4,.1-.5,0-1.1,0-1.7,0-1,0-1.9,0-2.5-.3-.7-.2-1.2-.4-1.6-.8s-.7-.7-.8-1.1c-.2-.4-.2-.9-.2-1.4,0-1.3,.4-2.2,1.2-2.8,.8-.6,2-.8,3.7-.8s.8,0,1.1,0c.3,0,.5,0,.7,0,0-.5-.2-.9-.6-1.2-.4-.3-1-.4-1.9-.4s-.8,0-1.1,0c-.3,0-.6,.1-.8,.2-.2,0-.4,.1-.5,.2-.1,0-.2,.1-.3,.2,0,0,0,0-.2-.2,0,0-.2-.2-.2-.3,0-.1-.2-.3-.2-.5,0-.2,0-.4,0-.6,0-1.2,1.2-1.8,3.6-1.8s1.5,0,2.2,.2c.7,.1,1.3,.4,1.8,.8,.5,.4,.9,.8,1.2,1.4s.4,1.3,.4,2.2v6.4Zm-3.2-4.4c-.1,0-.3,0-.5,0-.2,0-.6,0-1,0s-.7,0-1,.1c-.3,0-.4,.2-.6,.3-.1,.1-.2,.3-.3,.4,0,.2,0,.3,0,.5s0,.3,0,.4,.1,.3,.3,.4c.1,.1,.3,.2,.6,.3s.6,.1,1.1,.1,.7,0,1,0,.5,0,.6,0v-2.3Z"/>
          <path class="uuid-1dca8292-2180-41c6-939e-9adf832d23a4" d="M105.1,92.8c0-.7,.1-1.3,.3-1.8,.2-.5,.6-1,1-1.3,.4-.4,.9-.6,1.4-.8,.6-.2,1.2-.3,1.8-.3s1.5,.1,2.1,.4c.6,.3,1.1,.7,1.5,1.2,.4-.5,.9-.9,1.5-1.2s1.3-.4,2.1-.4,1.2,0,1.8,.3c.6,.2,1,.4,1.4,.8,.4,.4,.7,.8,1,1.3,.2,.5,.3,1.1,.3,1.8v6.9h-3.2v-6c0-.7-.1-1.2-.4-1.5-.3-.3-.7-.5-1.2-.5s-.9,.2-1.3,.6c-.3,.4-.5,1-.5,1.8v5.7h-3.2v-5.7c0-.8-.2-1.4-.5-1.8-.3-.4-.7-.6-1.3-.6s-.9,.2-1.2,.5c-.3,.3-.4,.8-.4,1.5v6h-3.2v-6.9Z"/>
          <rect class="uuid-1dca8292-2180-41c6-939e-9adf832d23a4" x="55.9" y="93.4" width="5.5" height="2.5" rx="1" ry="1"/>
          <path class="uuid-1dca8292-2180-41c6-939e-9adf832d23a4" d="M33.2,89.5c-.4-.9-.9-1.6-1.5-2.3-.6-.6-1.4-1.1-2.3-1.5-.9-.4-1.8-.5-2.7-.5s-1.9,.2-2.8,.5c-.9,.4-1.6,.9-2.2,1.5-.6,.6-1.2,1.4-1.5,2.3-.4,.9-.6,1.8-.6,2.9s.2,2,.6,2.9c.4,.9,.9,1.6,1.5,2.3,.6,.6,1.4,1.1,2.2,1.5,.9,.4,1.8,.5,2.8,.5s1.9-.2,2.7-.5c.9-.4,1.6-.9,2.3-1.5,.6-.6,1.2-1.4,1.5-2.3,.4-.9,.6-1.8,.6-2.9s-.2-2-.6-2.9Zm-6.5,7.4c-2.3,0-4.2-2-4.2-4.5s1.9-4.5,4.2-4.5,4.2,2,4.2,4.5-1.9,4.5-4.2,4.5Z"/>
        </g>
      </g>
    </g>
  </g>
</svg>