<?xml version="1.0" encoding="utf-8"?>

<svg   xmlns="http://www.w3.org/2000/svg" xmlns:xlink="http://www.w3.org/1999/xlink" x="0px" y="0px"
	 viewBox="0 0 159 116" style="enable-background:new 0 0 159 116;" xml:space="preserve">
<style type="text/css">
	.st0{fill:url(#SVGID_1_);}
	.st1{fill:#08304E;}
	.st2{fill:#62B4E3;}
	.st3{fill:url(#SVGID_2_);}
</style>
<g>
	<g>
		<linearGradient id="SVGID_1_" gradientUnits="userSpaceOnUse" x1="28.2254" y1="64.0634" x2="60.1788" y2="40.7611">
			<stop  offset="0" style="stop-color:#346EAF"/>
			<stop  offset="0.6061" style="stop-color:#346EAF"/>
			<stop  offset="0.6382" style="stop-color:#346EAF"/>
			<stop  offset="0.9604" style="stop-color:#000044"/>
		</linearGradient>
		<path class="st0" d="M65.65,28.29V51.8c0,7.18-5.83,13.06-12.95,13.06h0c-7.12,0-12.95-5.88-12.95-13.06V36.19
			c-1.51-4.57-5.76-7.87-10.8-7.9c0,0.07-0.01,0.14-0.01,0.21v23.44c0,13.18,10.69,23.95,23.75,23.95h0
			c13.06,0,23.75-10.78,23.75-23.95V39.96c0-1.53-0.15-3.02-0.42-4.47C74.35,31.33,70.35,28.39,65.65,28.29z"/>
	</g>
	<path class="st1" d="M43.57,95.36c0,0.6-0.1,1.12-0.3,1.56c-0.2,0.44-0.48,0.82-0.82,1.12c-0.35,0.3-0.76,0.53-1.24,0.68
		c-0.47,0.15-0.99,0.23-1.55,0.23c-0.69,0-1.3-0.12-1.84-0.36c-0.54-0.24-0.97-0.58-1.3-1.02c-0.33,0.44-0.76,0.78-1.29,1.02
		c-0.53,0.24-1.13,0.36-1.82,0.36c-0.55,0-1.06-0.08-1.54-0.23c-0.47-0.15-0.89-0.38-1.24-0.68c-0.35-0.3-0.62-0.68-0.82-1.12
		c-0.2-0.44-0.3-0.96-0.3-1.56v-8.69h2.76v7.85c0,0.62,0.12,1.06,0.36,1.33c0.24,0.27,0.58,0.4,1.01,0.4c0.45,0,0.81-0.16,1.09-0.47
		c0.28-0.32,0.42-0.82,0.42-1.51v-7.59h2.76v7.59c0,0.69,0.14,1.2,0.41,1.51c0.27,0.32,0.63,0.47,1.08,0.47
		c0.43,0,0.78-0.13,1.02-0.4c0.25-0.27,0.37-0.71,0.37-1.33v-7.85h2.76V95.36z"/>
	<path class="st1" d="M59.9,90.13c0-0.6,0.1-1.12,0.3-1.56c0.2-0.44,0.48-0.82,0.82-1.12c0.35-0.3,0.76-0.53,1.24-0.68
		c0.47-0.15,0.99-0.23,1.55-0.23c0.69,0,1.3,0.12,1.84,0.36c0.54,0.24,0.97,0.58,1.3,1.02c0.33-0.44,0.76-0.78,1.29-1.02
		c0.53-0.24,1.13-0.36,1.82-0.36c0.55,0,1.06,0.08,1.54,0.23c0.47,0.15,0.89,0.38,1.24,0.68c0.35,0.3,0.62,0.68,0.82,1.12
		c0.2,0.44,0.3,0.96,0.3,1.56v8.69H71.2v-7.85c0-0.62-0.12-1.06-0.36-1.33c-0.24-0.27-0.58-0.4-1.01-0.4
		c-0.45,0-0.81,0.16-1.09,0.47c-0.28,0.32-0.42,0.82-0.42,1.51v7.59h-2.76v-7.59c0-0.69-0.14-1.2-0.41-1.51
		c-0.27-0.32-0.63-0.47-1.08-0.47c-0.43,0-0.78,0.13-1.02,0.4c-0.25,0.27-0.37,0.71-0.37,1.33v7.85H59.9V90.13z"/>
	<path class="st1" d="M100.99,98.9c-0.07,0.02-0.22,0.05-0.46,0.08c-0.24,0.03-0.54,0.06-0.9,0.1c-0.36,0.04-0.77,0.07-1.24,0.09
		c-0.46,0.02-0.95,0.04-1.47,0.04c-0.87,0-1.59-0.08-2.16-0.25c-0.57-0.16-1.03-0.39-1.37-0.67c-0.34-0.28-0.58-0.6-0.72-0.98
		c-0.14-0.37-0.21-0.76-0.21-1.18c0-1.12,0.34-1.92,1.01-2.4c0.68-0.48,1.75-0.72,3.21-0.72c0.37,0,0.67,0.01,0.92,0.02
		c0.25,0.01,0.45,0.03,0.61,0.05c0-0.43-0.16-0.76-0.49-1c-0.33-0.24-0.87-0.36-1.62-0.36c-0.36,0-0.67,0.02-0.94,0.06
		c-0.27,0.04-0.5,0.09-0.69,0.16c-0.19,0.06-0.34,0.12-0.46,0.18c-0.11,0.06-0.19,0.11-0.24,0.15c-0.02-0.02-0.07-0.07-0.14-0.15
		c-0.07-0.07-0.14-0.17-0.21-0.28c-0.07-0.12-0.13-0.25-0.19-0.39c-0.06-0.15-0.09-0.3-0.09-0.47c0-1.06,1.02-1.59,3.06-1.59
		c0.66,0,1.29,0.06,1.87,0.19c0.58,0.13,1.09,0.35,1.52,0.66c0.43,0.31,0.77,0.72,1.01,1.23c0.25,0.51,0.37,1.15,0.37,1.91V98.9z
		 M98.23,95.08c-0.1-0.02-0.26-0.05-0.46-0.06c-0.2-0.02-0.5-0.03-0.9-0.03c-0.34,0-0.62,0.03-0.84,0.09
		c-0.22,0.06-0.39,0.14-0.51,0.25c-0.12,0.1-0.2,0.22-0.25,0.36c-0.05,0.13-0.07,0.27-0.07,0.42c0,0.11,0.02,0.22,0.05,0.35
		c0.03,0.12,0.11,0.23,0.22,0.33c0.11,0.1,0.29,0.18,0.52,0.25c0.23,0.07,0.53,0.1,0.91,0.1c0.3,0,0.57-0.01,0.82-0.03
		c0.25-0.02,0.42-0.04,0.5-0.06V95.08z"/>
	<path class="st1" d="M102.31,88.21c0-0.47,0.13-0.81,0.39-1c0.26-0.19,0.61-0.29,1.05-0.29c0.31,0,0.59,0.04,0.84,0.12
		c0.25,0.08,0.41,0.13,0.48,0.15v2.46h1.97c0.52,0,0.88,0.11,1.1,0.33c0.22,0.22,0.33,0.55,0.33,0.98c0,0.32-0.05,0.61-0.14,0.88
		c-0.09,0.27-0.16,0.45-0.21,0.54h-3.06v2.86c0,0.28,0.04,0.5,0.12,0.67c0.08,0.16,0.18,0.29,0.3,0.39c0.12,0.1,0.26,0.16,0.41,0.19
		c0.15,0.03,0.31,0.05,0.47,0.05c0.32,0,0.61-0.05,0.88-0.16c0.26-0.1,0.45-0.19,0.57-0.26l1.08,2.01c-0.1,0.1-0.25,0.21-0.45,0.33
		c-0.19,0.12-0.43,0.24-0.7,0.35c-0.27,0.11-0.58,0.2-0.93,0.28c-0.34,0.08-0.7,0.12-1.08,0.12c-1.08,0-1.92-0.3-2.52-0.9
		c-0.61-0.6-0.91-1.41-0.91-2.42V88.21z"/>
	<path class="st1" d="M85.07,87.85c0-0.49,0.14-0.83,0.41-1.04c0.27-0.2,0.63-0.3,1.08-0.3c0.32,0,0.61,0.04,0.87,0.12
		c0.26,0.08,0.43,0.14,0.5,0.16v2.54v2.82v2.96c0,0.29,0.04,0.52,0.12,0.69c0.08,0.17,0.19,0.3,0.31,0.4
		c0.12,0.1,0.27,0.17,0.43,0.2c0.16,0.03,0.32,0.05,0.49,0.05c0.33,0,0.63-0.05,0.9-0.16c0.27-0.11,0.47-0.2,0.58-0.27l1.12,2.07
		c-0.11,0.1-0.26,0.21-0.46,0.34c-0.2,0.13-0.44,0.24-0.73,0.36c-0.28,0.11-0.6,0.21-0.96,0.29c-0.35,0.08-0.73,0.12-1.12,0.12
		c-1.11,0-1.98-0.31-2.61-0.93c-0.63-0.62-0.94-1.45-0.94-2.49V87.85z"/>
	<path class="st1" d="M118.04,98.9c-0.07,0.02-0.22,0.05-0.46,0.08c-0.24,0.03-0.54,0.06-0.9,0.1c-0.36,0.04-0.77,0.07-1.24,0.09
		c-0.46,0.02-0.95,0.04-1.47,0.04c-0.87,0-1.59-0.08-2.16-0.25c-0.57-0.16-1.03-0.39-1.37-0.67c-0.34-0.28-0.58-0.6-0.72-0.98
		c-0.14-0.37-0.21-0.76-0.21-1.18c0-1.12,0.34-1.92,1.01-2.4c0.68-0.48,1.75-0.72,3.21-0.72c0.37,0,0.67,0.01,0.92,0.02
		c0.25,0.01,0.45,0.03,0.61,0.05c0-0.43-0.16-0.76-0.49-1c-0.33-0.24-0.87-0.36-1.62-0.36c-0.36,0-0.67,0.02-0.94,0.06
		c-0.27,0.04-0.5,0.09-0.69,0.16c-0.19,0.06-0.34,0.12-0.46,0.18c-0.11,0.06-0.19,0.11-0.24,0.15c-0.02-0.02-0.07-0.07-0.14-0.15
		c-0.07-0.07-0.14-0.17-0.21-0.28c-0.07-0.12-0.13-0.25-0.19-0.39c-0.06-0.15-0.09-0.3-0.09-0.47c0-1.06,1.02-1.59,3.06-1.59
		c0.66,0,1.29,0.06,1.87,0.19c0.58,0.13,1.09,0.35,1.52,0.66c0.43,0.31,0.77,0.72,1.01,1.23c0.25,0.51,0.37,1.15,0.37,1.91V98.9z
		 M115.27,95.08c-0.1-0.02-0.26-0.05-0.46-0.06c-0.2-0.02-0.5-0.03-0.9-0.03c-0.34,0-0.62,0.03-0.84,0.09
		c-0.22,0.06-0.39,0.14-0.51,0.25c-0.12,0.1-0.2,0.22-0.25,0.36c-0.05,0.13-0.07,0.27-0.07,0.42c0,0.11,0.02,0.22,0.05,0.35
		c0.03,0.12,0.11,0.23,0.22,0.33c0.11,0.1,0.29,0.18,0.52,0.25c0.23,0.07,0.53,0.1,0.91,0.1c0.3,0,0.57-0.01,0.82-0.03
		c0.25-0.02,0.42-0.04,0.5-0.06V95.08z"/>
	<path class="st1" d="M119.35,92.99c0-0.6,0.1-1.12,0.3-1.56c0.2-0.44,0.48-0.82,0.82-1.12c0.35-0.3,0.76-0.53,1.24-0.68
		c0.47-0.15,0.99-0.23,1.55-0.23c0.69,0,1.3,0.12,1.84,0.36c0.54,0.24,0.97,0.58,1.3,1.02c0.33-0.44,0.76-0.78,1.29-1.02
		c0.53-0.24,1.13-0.36,1.82-0.36c0.55,0,1.06,0.08,1.54,0.23c0.47,0.15,0.89,0.38,1.24,0.68c0.35,0.3,0.62,0.68,0.82,1.12
		c0.2,0.44,0.3,0.96,0.3,1.56v5.96h-2.76v-5.12c0-0.62-0.12-1.06-0.36-1.33c-0.24-0.27-0.58-0.4-1.01-0.4
		c-0.45,0-0.81,0.16-1.09,0.47c-0.28,0.32-0.42,0.82-0.42,1.51v4.87H125v-4.87c0-0.69-0.14-1.2-0.41-1.51
		c-0.27-0.32-0.63-0.47-1.08-0.47c-0.43,0-0.78,0.13-1.02,0.4c-0.25,0.27-0.37,0.71-0.37,1.33v5.12h-2.76V92.99z"/>
	<path class="st1" d="M80.8,95.72h-2.82c-0.53,0-0.97-0.44-0.97-0.97v-0.24c0-0.53,0.44-0.97,0.97-0.97h2.82
		c0.53,0,0.97,0.44,0.97,0.97v0.24C81.77,95.29,81.33,95.72,80.8,95.72z"/>
	<path class="st1" d="M57.48,90.21c-0.32-0.75-0.75-1.4-1.31-1.95c-0.55-0.55-1.2-0.98-1.94-1.3c-0.74-0.31-1.53-0.47-2.36-0.47
		c-0.85,0-1.64,0.16-2.37,0.47c-0.73,0.31-1.38,0.75-1.93,1.3c-0.55,0.55-0.99,1.2-1.31,1.95c-0.32,0.75-0.48,1.57-0.48,2.45
		c0,0.89,0.16,1.71,0.48,2.45c0.32,0.75,0.75,1.4,1.31,1.95c0.55,0.55,1.2,0.98,1.93,1.3c0.73,0.31,1.53,0.47,2.37,0.47
		c0.83,0,1.62-0.16,2.36-0.47c0.74-0.31,1.39-0.75,1.94-1.3c0.55-0.55,0.99-1.2,1.31-1.95c0.32-0.75,0.48-1.57,0.48-2.45
		C57.95,91.78,57.79,90.96,57.48,90.21z M51.86,96.55c-2,0-3.63-1.74-3.63-3.89c0-2.15,1.62-3.89,3.63-3.89c2,0,3.63,1.74,3.63,3.89
		C55.49,94.81,53.87,96.55,51.86,96.55z"/>
	<path class="st2" d="M128.87,61.07c-10.48,8.09-15.72,1.69-15.72-5.29V21.11c-1.51-4.57-5.76-7.87-10.8-7.9
		c0,0.07-0.01,0.14-0.01,0.21v39.1c0,21.77,12.5,28.14,31.46,17.26L128.87,61.07z"/>
	<g>
		<linearGradient id="SVGID_2_" gradientUnits="userSpaceOnUse" x1="56.0495" y1="64.567" x2="102.7936" y2="40.567">
			<stop  offset="0" style="stop-color:#346EAF"/>
			<stop  offset="0.6061" style="stop-color:#346EAF"/>
			<stop  offset="0.6382" style="stop-color:#346EAF"/>
			<stop  offset="0.9024" style="stop-color:#000044"/>
		</linearGradient>
		<path class="st3" d="M102.38,51.77l-0.03,0.03c0,7.18-5.83,13.06-12.95,13.06h0c-7.12,0-12.95-5.88-12.95-13.06V36.19
			c-1.51-4.57-5.76-7.87-10.8-7.9c0,0.07-0.01,0.14-0.01,0.21v23.44c0,13.18,10.69,23.95,23.75,23.95h0
			c6.53,0,12.47-2.69,16.77-7.03C106.11,68.84,102.38,64.92,102.38,51.77z"/>
	</g>
</g>
</svg>
