<?xml version="1.0" encoding="UTF-8"?>
<svg xmlns="http://www.w3.org/2000/svg" width="670.4" height="324.2" viewBox="0 0 670.4 324.2">
  <defs>
    <style>
      .uuid-fd815d56-159e-46d0-9e57-9d0c1935000d {
        fill: #000456;
      }

      .uuid-9fc84ff7-b419-4dc8-9ce4-615feb6dc382 {
        stroke: #fff5f6;
        stroke-width: 1px;
      }

      .uuid-9fc84ff7-b419-4dc8-9ce4-615feb6dc382, .uuid-14cf5bce-ad7a-4f65-b7cd-7370f771c20b {
        fill: none;
        stroke-miterlimit: 10;
      }

      .uuid-5522149d-e001-4f8f-9b5f-b5c8e24cd098 {
        fill: #ab110d;
      }

      .uuid-c5fa332b-25e5-4197-8356-a5d7315bc8eb {
        fill: #d3f1f5;
      }

      .uuid-3d5b1556-dab9-402d-afee-be8ffec20807 {
        fill: #f5f5f5;
      }

      .uuid-61144ed1-0d2b-429a-bdb6-fbb41db13c13 {
        isolation: isolate;
      }

      .uuid-098cf39a-9c8e-4dc6-b1d1-8142714dce50, .uuid-2a33a30f-a0d6-494c-88ee-905ff68176e9, .uuid-a1342aaf-ed68-44ef-a6bc-cf2c44013964 {
        mix-blend-mode: multiply;
      }

      .uuid-098cf39a-9c8e-4dc6-b1d1-8142714dce50, .uuid-babe9bcb-ff39-41fa-b12c-53bb57e8736c {
        fill: #dfdfdf;
      }

      .uuid-2a33a30f-a0d6-494c-88ee-905ff68176e9 {
        fill: #e9e9e9;
      }

      .uuid-a1342aaf-ed68-44ef-a6bc-cf2c44013964 {
        fill: #c3c3c3;
      }

      .uuid-9f1f6e72-035a-47c1-9f10-87487f034b50 {
        fill: #ab1917;
      }

      .uuid-df041627-0379-495f-8742-573944ca8ff0 {
        fill: #1fbce2;
      }

      .uuid-14cf5bce-ad7a-4f65-b7cd-7370f771c20b {
        stroke: #000456;
      }

      .uuid-0d48970e-fe29-4b35-8179-d8cfe0dc0875 {
        fill: #14e0ea;
      }

      .uuid-0f3bdc0f-4240-48c7-a72c-b1ae355078ba {
        fill: #adadad;
      }

      .uuid-88cfd66d-b164-445b-ada4-f0d9d5ec2aaa {
        fill: #fff5f6;
      }

      .uuid-fe8ea3a0-7021-4066-aa1b-df012eb781b2 {
        fill: #e00613;
      }
    </style>
  </defs>
  <g class="uuid-61144ed1-0d2b-429a-bdb6-fbb41db13c13">
    <g id="uuid-b04f663a-d22f-4b1e-be88-58702e839365" data-name="Layer 2">
      <g id="uuid-cc33d93c-6c60-41f4-9f6b-114820eb55e2" data-name="Capa 1">
        <g>
          <path class="uuid-9fc84ff7-b419-4dc8-9ce4-615feb6dc382" d="M180.1,3.2c0,1.5-1.2,2.7-2.7,2.7s-2.7-1.2-2.7-2.7,1.2-2.7,2.7-2.7,2.7,1.2,2.7,2.7Z"/>
          <g>
            <line class="uuid-14cf5bce-ad7a-4f65-b7cd-7370f771c20b" x1="439.9" y1="13.4" x2="439.9" y2="20.9"/>
            <line class="uuid-14cf5bce-ad7a-4f65-b7cd-7370f771c20b" x1="443.6" y1="17.1" x2="436.1" y2="17.1"/>
          </g>
          <path class="uuid-9fc84ff7-b419-4dc8-9ce4-615feb6dc382" d="M194.3,130.1c0,1.5-1.2,2.7-2.7,2.7s-2.7-1.2-2.7-2.7,1.2-2.7,2.7-2.7,2.7,1.2,2.7,2.7Z"/>
          <path class="uuid-9fc84ff7-b419-4dc8-9ce4-615feb6dc382" d="M403.3,51.4c0,1.5-1.2,2.7-2.7,2.7s-2.7-1.2-2.7-2.7,1.2-2.7,2.7-2.7,2.7,1.2,2.7,2.7Z"/>
          <path class="uuid-9fc84ff7-b419-4dc8-9ce4-615feb6dc382" d="M499,231.2c0,1.5-1.2,2.7-2.7,2.7s-2.7-1.2-2.7-2.7,1.2-2.7,2.7-2.7,2.7,1.2,2.7,2.7Z"/>
          <path class="uuid-9fc84ff7-b419-4dc8-9ce4-615feb6dc382" d="M541.1,96.4c0,1.5-1.2,2.7-2.7,2.7s-2.7-1.2-2.7-2.7,1.2-2.7,2.7-2.7,2.7,1.2,2.7,2.7Z"/>
          <g>
            <line class="uuid-14cf5bce-ad7a-4f65-b7cd-7370f771c20b" x1="131.1" y1="85.8" x2="131.1" y2="93.3"/>
            <line class="uuid-14cf5bce-ad7a-4f65-b7cd-7370f771c20b" x1="134.9" y1="89.6" x2="127.4" y2="89.6"/>
          </g>
          <g>
            <line class="uuid-14cf5bce-ad7a-4f65-b7cd-7370f771c20b" x1="245.6" y1="45.3" x2="245.6" y2="52.8"/>
            <line class="uuid-14cf5bce-ad7a-4f65-b7cd-7370f771c20b" x1="249.3" y1="49" x2="241.9" y2="49"/>
          </g>
          <g>
            <line class="uuid-14cf5bce-ad7a-4f65-b7cd-7370f771c20b" x1="182.3" y1="218.3" x2="182.3" y2="225.7"/>
            <line class="uuid-14cf5bce-ad7a-4f65-b7cd-7370f771c20b" x1="186" y1="222" x2="178.6" y2="222"/>
          </g>
          <g>
            <line class="uuid-14cf5bce-ad7a-4f65-b7cd-7370f771c20b" x1="3.7" y1="141.9" x2="3.7" y2="149.4"/>
            <line class="uuid-14cf5bce-ad7a-4f65-b7cd-7370f771c20b" x1="7.4" y1="145.6" y2="145.6"/>
          </g>
          <g>
            <line class="uuid-14cf5bce-ad7a-4f65-b7cd-7370f771c20b" x1="666.7" y1="83.5" x2="666.7" y2="90.9"/>
            <line class="uuid-14cf5bce-ad7a-4f65-b7cd-7370f771c20b" x1="670.4" y1="87.2" x2="663" y2="87.2"/>
          </g>
          <g>
            <line class="uuid-14cf5bce-ad7a-4f65-b7cd-7370f771c20b" x1="483.3" y1="117.8" x2="483.3" y2="125.2"/>
            <line class="uuid-14cf5bce-ad7a-4f65-b7cd-7370f771c20b" x1="487" y1="121.5" x2="479.6" y2="121.5"/>
          </g>
          <g>
            <g>
              <path class="uuid-098cf39a-9c8e-4dc6-b1d1-8142714dce50" d="M396.1,321.1c0,1.8-27.8,3.2-62,3.2s-62-1.4-62-3.2,27.8-3.2,62-3.2,62,1.4,62,3.2Z"/>
              <g>
                <g>
                  <path class="uuid-fd815d56-159e-46d0-9e57-9d0c1935000d" d="M450.3,147.6v132.8H217.8V147.6c0-4.6,3.7-8.3,8.3-8.3h216c4.6,0,8.3,3.7,8.3,8.3Z"/>
                  <path class="uuid-88cfd66d-b164-445b-ada4-f0d9d5ec2aaa" d="M450.3,278.3v7c0,4.5-3.7,8.2-8.3,8.2H226c-2.9,0-5.4-1.5-6.9-3.7-.9-1.3-1.4-2.9-1.4-4.5v-7h232.5Z"/>
                  <rect class="uuid-c5fa332b-25e5-4197-8356-a5d7315bc8eb" x="225.9" y="147.2" width="214.1" height="123.1"/>
                  <polygon class="uuid-88cfd66d-b164-445b-ada4-f0d9d5ec2aaa" points="359.5 317.2 311.1 317.2 310.8 293.8 311 292.7 360.6 292.7 360.9 293.8 359.5 317.2"/>
                  <path class="uuid-88cfd66d-b164-445b-ada4-f0d9d5ec2aaa" d="M374.8,321.1h-78.3c0-2.9,2.4-5.3,5.3-5.3h67.7c2.9,0,5.3,2.4,5.3,5.3h0Z"/>
                </g>
                <polygon class="uuid-babe9bcb-ff39-41fa-b12c-53bb57e8736c" points="360.7 295.9 310.8 295.9 310.8 293.5 360.9 293.5 360.7 295.9"/>
              </g>
            </g>
            <path class="uuid-2a33a30f-a0d6-494c-88ee-905ff68176e9" d="M450.3,147.6v137.7c0,4.5-3.7,8.2-8.3,8.2H226c-2.9,0-5.4-1.5-6.9-3.7l13.6-9.4,3.1-2.1,201.2-139h5.1c4.6,0,8.3,3.7,8.3,8.3Z"/>
          </g>
          <g>
            <circle class="uuid-df041627-0379-495f-8742-573944ca8ff0" cx="528.8" cy="178.5" r="28.1"/>
            <path class="uuid-a1342aaf-ed68-44ef-a6bc-cf2c44013964" d="M557.5,178.5c0,15.5-12.6,28.1-28.1,28.1s-16.1-3.8-21.2-9.7l39.6-39.6c5.9,5.1,9.7,12.7,9.7,21.2Z"/>
            <path class="uuid-3d5b1556-dab9-402d-afee-be8ffec20807" d="M530,177.6c3,.9,6.3,2,6.3,6.1,0,3.3-2.5,5.4-6.3,5.9v4.2h-2.6v-4.1c-2.8-.2-5.5-1.5-7.4-3.2l1.5-3c1.8,1.6,3.9,2.6,5.8,2.9v-5.9c-3-.9-6.1-2-6.1-5.9s2.4-5.3,6.1-5.7v-3.9h2.6v3.9c2.2,.2,4.4,1,6,2.1l-1.4,3.1c-1.6-1-3.2-1.5-4.6-1.8v5.5Zm-2.6-.9v-4.6c-1.4,.2-2.2,.9-2.2,2.1s.9,2,2.2,2.6Zm2.6,9.5c1.5-.3,2.4-1.2,2.4-2.4s-1-2.1-2.4-2.7v5.1Z"/>
          </g>
          <g>
            <path class="uuid-0d48970e-fe29-4b35-8179-d8cfe0dc0875" d="M155.6,178.5c0,15.5-12.6,28.1-28.1,28.1s-16.1-3.8-21.2-9.7c-4.3-4.9-6.9-11.4-6.9-18.4,0-15.5,12.6-28.1,28.1-28.1s13.5,2.6,18.4,6.9c5.9,5.1,9.7,12.7,9.7,21.2Z"/>
            <path class="uuid-a1342aaf-ed68-44ef-a6bc-cf2c44013964" d="M155.6,178.5c0,15.5-12.6,28.1-28.1,28.1s-16.1-3.8-21.2-9.7l39.6-39.6c5.9,5.1,9.7,12.7,9.7,21.2Z"/>
            <path class="uuid-3d5b1556-dab9-402d-afee-be8ffec20807" d="M141.3,179.1c0,4.5-2.3,7.4-5.6,7.4s-3.1-.7-3.4-2.4v-.6c-1.3,1.8-3.1,2.6-5.1,2.6-3.6,0-6.8-2.8-6.8-6.9s2.6-7.1,6.5-7.1,4.4,1.6,4.7,2.2v-1.9h3.2v10.3c0,1.1,.6,1.6,1.4,1.6,1.4,0,2.8-2.1,2.8-5.1,0-5.9-4.1-10.4-10.7-10.4s-11,4.6-11,10.5,4.6,10,10.6,10,4-.6,5.7-1.7l1.2,2.2c-1.7,1.2-4.7,2-6.9,2-7.5,0-13.2-5.3-13.2-12.4s5.9-12.8,13.6-12.8,13.2,5.3,13.2,12.7Zm-17.6,0c0,2.3,1.5,4.2,3.7,4.2s3.8-1.8,3.8-4.1-1.5-4-3.8-4-3.7,1.8-3.7,4Z"/>
          </g>
          <g>
            <g>
              <path class="uuid-0d48970e-fe29-4b35-8179-d8cfe0dc0875" d="M364.5,44.1c0,17.3-14,31.2-31.2,31.2s-17.9-4.2-23.6-10.8c-4.8-5.5-7.6-12.6-7.6-20.5,0-17.2,14-31.2,31.2-31.2s15,2.9,20.5,7.7c6.6,5.7,10.8,14.2,10.8,23.6Z"/>
              <path class="uuid-a1342aaf-ed68-44ef-a6bc-cf2c44013964" d="M364.5,44.1c0,17.3-14,31.2-31.2,31.2s-17.9-4.2-23.6-10.8l44-44c6.6,5.7,10.8,14.2,10.8,23.6Z"/>
            </g>
            <g>
              <path class="uuid-88cfd66d-b164-445b-ada4-f0d9d5ec2aaa" d="M330.5,42.1c-.2,.3-.2,.2-.3,.4l-.3,.2h0c-.1,.3,0,.3,0,.5-.9,.9-.9,.9-1.2,1.6,0,.2,0,.3,0,.4,0,0,0,0,0,.2,0,.5,0,.2-.2,.6,0,0,0,.2,0,.2,0,.3,0,.2,0,.4,.6,.3,.3,.5,.8,1.1,0,0,.2,.1,.2,.2,0,0,.6,.3,.9,.1,0,0,.1-.1,.2,0,.2,.1,1.5-.6,1.6,0,0,0,0,.1,0,.1h0c.2-.1,0,0,.3,0,.1,.2,.1,.1,.2,.2,.2,.5,0,.6,0,.8,0,0,1.3,1.4,.5,2.6-.3,.9,.5,1,.5,1.8s.4,.8,.5,1.3c0,.3,0,.3,.2,.6,0,0,.2,0,.2,0,0,0,.2-.1,.2,0,.1,0,.6-.2,.6-.2,.1,0,.8-.7,.9-.8,.2,0,.3-.7,.5-.8,0,0,.1-.1,.2-.1,0,0,.1,0,0,0,0-.1,0-.3,0-.4,0,0,0,0,0-.1,0-1,1.5-.7,.9-2.2-.3-.9-.1-1,.2-1.4,1.5-1.8,2.6-3.2,.5-2.5-.6-.1-2.2-3.6-1.9-3.4,.5-.2,1.7,2.8,2,2.9h.3c.7-.5,.3-.3,1-.6,1.4-1.4,.9-1.1,.7-1.4-.4-.4-.2-.7-.4-.5-.2,.2-.6,.6-.7,.4-.7-1.1-.5-1.4-.4-1.2,.2,.6,2.2,.9,2.8,1,.6,.4,.8,.7,.9,.8,.2,.2,.5-.3,.5,0,0,.4,.8,2.2,.8,2.4,0,.1,.3,0,.4-.2,.2,0,0-.8,0-.9,.2-.9,.6-.7,.8-1,.1-.2,.6-.6,.6-.5,0,0,.4,0,.4,0,.2,0,.3,.5,.5,.7,.2,.2,.3,0,.3,.3,0,.8,.3-.2,.5,.4,.2,.7,0,.6,.1,1,0,.2,.1,.2,.1,.3,0,0,.1-1.4,.3-.8,.4,1.4,2.2,.2,.8-1-.2-.2-.4-.2-.2-.5,.2-.3,.3-.4,.4-.4,.5,.3,.2,1.1,.4,.6,.4-.7,.2-.4,.4-.6,0-.2,.4-.2,.6-.3,.2-.1,.5-.8,.5-.9,0,0-.2-.6-.2-.6,0,0,0,0-.2-.2-.2-.2-.3-.3-.3-.4,0,0,0,0,0-.2,0-.1,.1,0,.1-.2s.1-.2,0-.1c-.2,0,0,0-.2,0s-.6,0-.4-.2c.2-.3,.3-.5,.3-.5s.2-.2,.3,0c0,.2,0,.2,.1,.3,0,.1,.3-.2,.3-.2,.2,0,.2,.2,.2,.4,0,0,0,0,0,0,.2,.1,.3,0,.3,.3s0,.3,0,.3c0,0,.2,0,.3,0,0,0,.2-.3,.2-.3,0-.1-.4-.3-.6-.5,0,0,0-.3,0-.4,0,0,.1-.1,0-.2,0-.1,0-.2,.2-.2s.2,0,.2,0c0,0,.7-1.7-.5-1.9-.4,0-.5,0-.6,0,0-.1-.1,.2-.2-.2,0-.3,0-.6,0-.6,0,0,.2-.1,.3-.2,0-.1,.2-.1,1.1,0,.6,.1,.3-.2,.4-.4,.3-.4,.3,.2,.6,0,.1-.1,.2-.1,.2-.1h0c.1,0,.2,.4,.2,.5-.5,.7,.2,.8,.3,1,0,0,.7,1.1,.6,.2,0-.1,.1-.2,0-.4-.2-.6-1-.6-.2-.9,0,0,.2-.2,.2,0,0,.1-.2,.5,.2,0,.4-.4,.2-.3,.2-.3,.5,0,.5,0-.4-.5,0,0,0,0,.2,0,0,0,0-.1,.2-.2,0,0,.5,0,.6,.2,0,0,.4,0,.4,0,0,0-.3-.2-.3-.3,0,0-.5-.2-.6-.2-.2,0-.3,0-.4,0-.1,0-.3-.2-.4-.2s-1.3-.2-1.4-.2c0,0-.1,.3-.2,.2,0,0-.1,0-.3,0-.2,0-.5,0-.8-.1-1.3-.1-.2-.1-1.2-.2-.3,0-.9,0-1.1,0,0,0-.6-.3-.7-.3,0,.2-.3,.3-.3,.3,0,0-.3,0-.3,0-.2-.1-.7,0-1-.2-.6-.3-.9,0-1.2,0-.6,0-.5-.2-1-.2-1.3,.2,.5-.3-.9-.5-.2,0,.1,0-.4,0,0,0-.9,0-.9,.1-.4,.5-1.6,.2-1.5,.5,0,.2,.1,.3,.1,.4,0,.9-.8-.8-.6-.2,.1,.4,.4,.6,.1,.7-.4,.1-.3-.2-.3-.4,0-.5-.8-.7-.7-.4,0,.3,0,0,.2,.3s.3,0,.2,.2c-.2,.2-.7,0-.9,0-.2-.1-.1-.2-.3-.1-.2,0-.3,.3-.4,.2,0,0-.3,0-.3,0,0,0-.3,0-.4,0,0,0-.2,0-.5,.2-.7,.3-.9,.7-1,.5,0-.2-.6-.4-.4-.5,1.4-.3,.3-.5-1.1-.6-1.1-.1-2.1,1.3-2.4,1.4-.2,0-.1,.7,0,.6,0,0,0-.3,.3,0,.3,.2,.5,.2,.5,.4,0,.2,.2,.3,.4,.2,.5-.3,.2-.2,.5-.6-.6-.3,.6-1.2,.6-.9,0,0-.2,.4-.2,.5,0,0,.1,.3,.2,.3s.5,0,.5,0c.3,.2-.1,.3-.3,.3-.1,0-.3-.2-.2,0s0,.4,0,.3c0,0-.3-.2-.2,0,0,.2-.2,.4-.2,.4,0,0-.4-.1-.6,0,0,.1-.2,0-.3,0-.2,0-.5,0-.6,0-.3-.2-1.2,1-1.7,.9-.7-.1,.3,.3,0,.3-.6,0,0,0,0,.4,.1,0,0,.3-.1,.4-.4,.2-.2,0-.7,0-.5,0-.4,1.2-.2,1.2,1.9,.3,.8-.6,1.6-.8,0-.1,.2-.4,.4-.4,.8,.2,.1,0,.6-.2,.1,0,.1,.2,.3,.3,0,0,.2,0,.2,.1,.6,.3,.4,.2,.6,.4,0,0,0,0,0,0-.1,.3-.4,.3-.4,.3,.2,.2,.2,.1,.5-.2,0,0,0,0,0,0,0,0,0-.2,0-.1,0,0,.1,0,.1,0,0,0-.3-.4-.3-.4,0,0-.3-.2-.3-.2,0,0,0,0-.1-.2,0-.1-.1,0-.2-.2,0,0-.1-.2,0-.2,1.1,.2,1.6,2.3,1.7,1.4,0,0,.2,0,.1,0-.2-.1-.2-.4-.1-.4,.4,0,.6-.2,.6,0-.5,1.5,2,0,1.5,1.4-.4,.8-2.1,.2-2.3,0,0,0-.1,.8-1.2,0-.1,0-.2,.1-.3,0-.1-.3-.3,.1-.3-.5,0-.1,.2-.2,0-.3,0,0-1.4,.1-1.4,.2,0,0-1,.3-1.2,0h0Z"/>
              <path class="uuid-88cfd66d-b164-445b-ada4-f0d9d5ec2aaa" d="M339.7,51.3c0,.2-.2,.4-.2,.4,0,0-.6,.3-.6,.3-.2,0,0,.3,0,.4,0,.1,0,.5-.1,.5-.2,0-.1,0-.1,.5l.2,.3s.3,0,.4-.1c0,0,.1,0,.1-.1,0-.5,.5-1,.5-1.9v-.3h0Z"/>
              <path class="uuid-88cfd66d-b164-445b-ada4-f0d9d5ec2aaa" d="M350.4,53.2c-.1,.1-.2,2.3-.2,2.3,1,0,3.2-1.3,3.1,0h.2c.8-.5,.2,0,.4,.2,.2,0,0,.7,.4,.6,0,0,.4,0,.4,0,.4,.6,3-2.5,2-3-.9-.4-.9-3.3-1.2-1.7-.6,1.2-.8,.3-1,.3s-.1-.3,0-.6c0-.1-1-.2-1.2,.3,0,.2,.2,.3-.3,.1,.1,0-.1-.4-.4,0-1.1,1.5-1.9,1.3-2.1,1.5h0Z"/>
              <path class="uuid-88cfd66d-b164-445b-ada4-f0d9d5ec2aaa" d="M351.3,47.7c0,.1-.3,.5-.5,.4-.3,0-.3,.7-.5,.6-.4-.2,0,.9,.2,.8,0,0,.4,0,.4,0,.3,.1,.5,0,.4-.1-.1-.1,.2-.2,.2-.4,0,0,0,0,0-.2,0,0,.1,0,.1,0s0,0,0-.2c-.2-.5,.4-.7-.3-.9h0Z"/>
              <path class="uuid-88cfd66d-b164-445b-ada4-f0d9d5ec2aaa" d="M354,49.1c.4-.1,.1,0,.4,.4,.3,.5,.5-.4,.7-.2,0,0,1.1,.4,1.2,.5,.1,.2,0,.2,.2,.3,.3,.3-.2,0,.2,.4,.4,.4,.6,.5,.5,.5-.2,0-.4,0-.6-.2-.8-.9-.5,.3-1.2-.3,0,0,0-.1-.2,0-.3,0,0-.1-.1-.3,0-.2-.4-.4-.5-.4,0,0-.5,0-.5-.3,.3,0,0-.2-.2-.3,0,0,0,0,.2,0h0Z"/>
              <path class="uuid-88cfd66d-b164-445b-ada4-f0d9d5ec2aaa" d="M347.8,47.9s0,0,.2,0c.2,0,2.1,2,1.3,2.1-.3-.2-1.1-1.6-1.5-2.2h0Z"/>
              <path class="uuid-88cfd66d-b164-445b-ada4-f0d9d5ec2aaa" d="M321,58.8c-1.3-.8-.5-.9-1.3-2.3-.4-4.9,.6-3-2.4-6.6v-.2c.1,0,.3-.2,.1-.3-.3-.2,.9-1.4,.7-1.6-.4-.3,.2-.7,.3-.9,.4,0,.3-.5,.4-.2,.2,.4,0,.6,.2,.5,0,0,.1-.5,.2-.5,0,0,3.7,1.3,3.2,2.1-.1,.2-.3,.3-.2,.3,.2,0,.6-.2,.6,0s0-.3,.4,0c.4,.4,.8,.2,1,.3,1.6,1.1,.8,.5,.4,1.9-.3,1,.2,1.8-1.3,2.1-.5,.1-.1,.3-.3,.7,0,.2-.5,1.2-.8,1.3,0,.2-.5-.2-.5,0,0,.3,.5,.3,.4,.5,0,.1-.4,.5-.5,.5-.7-.3,0,.6-.5,.4h-.1c0,.2,.3,.2,.2,.5,0,0-.1,.2-.2,.3-.2,.5,.2,0,.2,.4s-.1,.4-.2,.6c0,.3,.2,.4-.2,.3h0Z"/>
              <path class="uuid-88cfd66d-b164-445b-ada4-f0d9d5ec2aaa" d="M317.5,47.4c-.2-.3-.5-.4-.5-.6,0-2.2-1.1-.1-.5-1.5,.3-.9-.3-.6-.3-.5-.2,.4-.1,.3-.5,.5-.6,0-.8-.3-.8-.7s.3-.9,.3-.9c0-.3,.3-.3,.4-.4,.6-.6,.9,.2,1.2-.2,.3-.4,.9,0,.9,.3s0,.8,.3,.4c.1,0,0-.8,0-.9-.1-.4,1.2-.8,1.2-1.1,0,0,.8-.9,.9-.9s.3,0,.3,0c0-.5,1.4-.9,1-.7-.1,0-.4,.6,0,.3,.3-.2,.8-.4,.8-.4,.3-.3-.4,0-.4,0-.6-.2,.8-.6-.7-.4-.1,0-.1-.4,1.3-.4s1-.5,.9-.6c-.3-.3-.3,.2-.5-.9,0-.4-.2-.1-.7,0-.2,0-.1-.3-.2-.4,0-.2-.7-.3-.7-.2,0,0-.3,.4-.4,.4,0,0-.1-.2-.2,.2,0,1,.2,.3-.5,.7-.3,0-.1,.5-.3,.5,0,0-.3,0-.4,0,0,0,0-.4,0-.4h.1c-.3-.2-1.1-.3-1.2-.6-.3-.8,1.5-1,1.6-1.3,0-.3,.2-.1,.2,0,0,.2,0,0,.4-.2,0,0,.6,0,.6-.4,0-.4-1,.6-.8,0,0,0-.2,0-.2-.2,0-.1,0-.3,0-.3-.1,0-.3,0-.4,.2-.3,.8-.7,.4-1,.3,0,0-1.1,0-1.1,.3,0,0-.3-.3-.7-.3s0-.1,0-.1-.9,0-.9,0c-1-.4-1.5,.6-2.3,0-.6-.4-3.5,.2-3.3,.4,.1,0,.2,.2,0,.3,0,0-.4-.2-.6,0-.3,.2,0,.4,0,.3,0-.2,.4-.2,.3,0-.3,.4-1.1,.2-1.2,.6,0,0,0,.3,0,.3,0,0,.4,.1,.3,.2,0,.1-.1,.2,0,0,0,0,.6-.1,.8-.2,.7-.5,2.2,0,2.3,.3,0,.3,0,.8,0,.9,0,.6,.3,.8,0,.8,0,.1,0,.3-.3,.6-1.4,1.7-.1,1.8,0,2.9,0,0,.1,.4,.3,.8,0,0,.1,.2,.2,.3,0,.2,0-.2,0-.3,0,0,0,0-.2-.8-.2-.6,.3-.4,.3,0,0,.2,.3,.6,.3,.7,0,0,0,0,.3,.5,.1,.2,.2,.2,.1,.5,0,.1,0,.3,0,.3,.2,0,.8,.6,1.4,.6,.1,0,.3,0,.3,0,.3,.5,.9,.3,1.1,.6,.4,.8,0,.2,.5,.7h.2l.2,.2h.2Z"/>
              <path class="uuid-88cfd66d-b164-445b-ada4-f0d9d5ec2aaa" d="M321.9,34.4c1.1-.1,1.1-.1,1.3-.2,.5-.3,7.6-.2,6.9,.2-.9,.4-.2,.5-.7,.7-.4,.1-.5,0-.6,.2-.2,.4,.2,.4-.2,.7,0,0-1.2,.2-1.5,.3,0,0,.1,.1-.3,.2s-.5,.1-.7,.3c0,0-.5,.9-.6,.7-.6-.5-.6-.5-.6-.9-.1-.8,.3,0,.5-.6,0-.8-.6-1.1-.8-1.2-.8,0-.8-.3,.1-.2,.3-.1,.6-.5-.6-.2-1.7,.4-1.5,.7-2,.4,.2,0-.8-.1-.4-.4,0,0,.1-.1,.1-.1h0Z"/>
              <path class="uuid-88cfd66d-b164-445b-ada4-f0d9d5ec2aaa" d="M321.4,35.4c-.1,.1-.4,.3-.3,.3,.5,.5,0-.1,.7,.1,.5,.2,.4,0,.5,.2,.1,.4,.3,.6-.2,.7-.8,.2,1.1,.8,.7,.4-.2-.2,0-.3,0-.3,.7,.5-.3-.7,.4-.3v-.4l-.3-.3c.3-.2-.8-.6-1.4-.4h-.1Z"/>
              <path class="uuid-88cfd66d-b164-445b-ada4-f0d9d5ec2aaa" d="M316.8,35.6c.5-.5,1-.3,1-.3,.8,.7,1.4-.2,1.3,.3,0,.3,.1,.4-.1,.4-.2,0-.5,.2-.6,.1-.2-.1-1.1,.2-1-.3,0-.3-.1,0-.4-.2,0,0-.2,0-.2,0h0Z"/>
            </g>
          </g>
          <g>
            <polygon class="uuid-5522149d-e001-4f8f-9b5f-b5c8e24cd098" points="397.7 173.7 396.5 172.8 396.5 172.6 397.7 172.1 335.4 127 270.8 172.2 271.5 172.6 271.5 214.2 396.5 214.2 396.5 173.7 397.7 173.7"/>
            <g>
              <rect class="uuid-3d5b1556-dab9-402d-afee-be8ffec20807" x="288.4" y="110.7" width="90.4" height="105.2"/>
              <rect class="uuid-0f3bdc0f-4240-48c7-a72c-b1ae355078ba" x="298.4" y="120.9" width="41.4" height="3.2"/>
              <rect class="uuid-0f3bdc0f-4240-48c7-a72c-b1ae355078ba" x="298.1" y="132.4" width="68.6" height="1.4"/>
              <rect class="uuid-0f3bdc0f-4240-48c7-a72c-b1ae355078ba" x="298.1" y="139.3" width="68.6" height="1.4"/>
              <rect class="uuid-0f3bdc0f-4240-48c7-a72c-b1ae355078ba" x="298.1" y="146.1" width="68.6" height="1.4"/>
              <rect class="uuid-0f3bdc0f-4240-48c7-a72c-b1ae355078ba" x="298.1" y="153" width="68.6" height="1.4"/>
              <rect class="uuid-0f3bdc0f-4240-48c7-a72c-b1ae355078ba" x="298.1" y="159.9" width="68.6" height="1.4"/>
              <rect class="uuid-0f3bdc0f-4240-48c7-a72c-b1ae355078ba" x="298.1" y="166.7" width="68.6" height="1.4"/>
              <rect class="uuid-0f3bdc0f-4240-48c7-a72c-b1ae355078ba" x="298.1" y="173.6" width="68.6" height="1.4"/>
              <rect class="uuid-0f3bdc0f-4240-48c7-a72c-b1ae355078ba" x="298.1" y="180.5" width="68.6" height="1.4"/>
              <rect class="uuid-0f3bdc0f-4240-48c7-a72c-b1ae355078ba" x="298.1" y="187.4" width="68.6" height="1.4"/>
              <rect class="uuid-0f3bdc0f-4240-48c7-a72c-b1ae355078ba" x="298.1" y="194.2" width="68.6" height="1.4"/>
              <rect class="uuid-0f3bdc0f-4240-48c7-a72c-b1ae355078ba" x="298.1" y="201.1" width="68.6" height="1.4"/>
            </g>
            <g>
              <polygon class="uuid-fe8ea3a0-7021-4066-aa1b-df012eb781b2" points="397.6 238.7 270.8 238.7 270.8 172.6 333.3 204.7 397.6 172.6 397.6 238.7"/>
              <polygon class="uuid-5522149d-e001-4f8f-9b5f-b5c8e24cd098" points="333.3 204.7 397.6 238.7 270.8 238.7 333.3 204.7"/>
              <path class="uuid-9f1f6e72-035a-47c1-9f10-87487f034b50" d="M397.6,172.1c0,0-.1,0-.2,0l-64.6,32.6c-.2,.1-.3,.4-.2,.6,0,.2,.2,.3,.4,.3s.1,0,.2,0l64.4-32.5v-1Z"/>
              <path class="uuid-9f1f6e72-035a-47c1-9f10-87487f034b50" d="M333.5,204.8l-62.5-32.6c0,0-.1,0-.2,0v1l62.2,32.5c0,0,.1,0,.2,0,.2,0,.3,0,.4-.3,.1-.2,0-.5-.2-.6Z"/>
            </g>
          </g>
        </g>
      </g>
    </g>
  </g>
</svg>