<?xml version="1.0" encoding="UTF-8"?>
<svg id="uuid-5d1c5c42-8dd8-4284-945f-8138ea2cf036" data-name="Layer 2" xmlns="http://www.w3.org/2000/svg" width="21.8" height="26.3" viewBox="0 0 21.8 26.3">
  <defs>
    <style>
      .uuid-53073413-d8fd-436c-b59f-e93a0e7a503e {
        fill: #fff;
      }
    </style>
  </defs>
  <g id="uuid-59534d0b-47e7-4ff0-acf9-699e2449e0d4" data-name="Capa 1">
    <g>
      <path class="uuid-53073413-d8fd-436c-b59f-e93a0e7a503e" d="M10.9,0c5.8,0,10.7,2.4,10.9,5.3-.2,2.9-5.1,5.3-10.9,5.3S.2,8.1,0,5.3C.2,2.4,5.1,0,10.9,0Z"/>
      <path class="uuid-53073413-d8fd-436c-b59f-e93a0e7a503e" d="M21.8,20.9c0,2.9-5,5.4-10.9,5.4S0,23.9,0,20.9v-2.6c1.9,2.2,6,3.8,10.9,3.8s9-1.5,10.9-3.8v2.6Z"/>
      <path class="uuid-53073413-d8fd-436c-b59f-e93a0e7a503e" d="M21.8,15.6c0,2.9-5,5.4-10.9,5.4S0,18.6,0,15.6v-2.7c1.9,2.2,6,3.8,10.9,3.8s9-1.5,10.9-3.8v2.7Z"/>
      <path class="uuid-53073413-d8fd-436c-b59f-e93a0e7a503e" d="M21.8,10.2c0,2.9-5,5.4-10.9,5.4S0,13.1,0,10.2v-2.4c1.9,2.2,6,3.8,10.9,3.8s9-1.5,10.9-3.8v2.4Z"/>
    </g>
  </g>
</svg>