<?xml version="1.0" encoding="UTF-8"?>
<svg id="uuid-f87ab935-d015-46f4-91f1-9bee1f89a8ca" data-name="Layer 2" xmlns="http://www.w3.org/2000/svg" width="21.8" height="26.3" viewBox="0 0 21.8 26.3">
  <defs>
    <style>
      .uuid-95152a55-8314-4a5b-838c-4c42d7cd4bf7 {
        fill: #fff;
      }
    </style>
  </defs>
  <g id="uuid-d132e47f-3a84-4a0f-867f-a2a91db27c7c" data-name="Capa 1">
    <g>
      <path class="uuid-95152a55-8314-4a5b-838c-4c42d7cd4bf7" d="M10.9,0c5.8,0,10.7,2.4,10.9,5.3-.2,2.9-5.1,5.3-10.9,5.3S.2,8.1,0,5.3C.2,2.4,5.1,0,10.9,0Z"/>
      <path class="uuid-95152a55-8314-4a5b-838c-4c42d7cd4bf7" d="M21.8,20.9c0,2.9-5,5.4-10.9,5.4S0,23.9,0,20.9v-2.6c1.9,2.2,6,3.8,10.9,3.8s9-1.5,10.9-3.8v2.6Z"/>
      <path class="uuid-95152a55-8314-4a5b-838c-4c42d7cd4bf7" d="M21.8,15.6c0,2.9-5,5.4-10.9,5.4S0,18.6,0,15.6v-2.7c1.9,2.2,6,3.8,10.9,3.8s9-1.5,10.9-3.8v2.7Z"/>
      <path class="uuid-95152a55-8314-4a5b-838c-4c42d7cd4bf7" d="M21.8,10.2c0,2.9-5,5.4-10.9,5.4S0,13.1,0,10.2v-2.4c1.9,2.2,6,3.8,10.9,3.8s9-1.5,10.9-3.8v2.4Z"/>
    </g>
  </g>
</svg>