<?xml version="1.0" encoding="UTF-8"?>
<svg id="uuid-47618560-2004-4616-82de-dbd835903148" data-name="Layer 2" xmlns="http://www.w3.org/2000/svg" width="30.7" height="30.7" viewBox="0 0 30.7 30.7">
  <defs>
    <style>
      .uuid-1430f0ab-260b-4cd1-afe7-eee1f1f28171 {
        fill: #fff;
        fill-rule: evenodd;
      }
    </style>
  </defs>
  <g id="uuid-8ee78359-36c6-412e-a90f-2f398ec922e4" data-name="Capa 1">
    <g>
      <path class="uuid-1430f0ab-260b-4cd1-afe7-eee1f1f28171" d="M15.5,11c1,0,2.2,.5,2.8,1.1,0,0,.2,.2,.4,.2,.1,0,.3,0,.4-.1l1.5-1.4c.2-.2,.2-.5,0-.7-.9-.9-2.1-1.6-3.5-1.9v-1.2c0-.3-.2-.5-.5-.5h-2c-.3,0-.5,.2-.5,.5v1.1c-2.4,.4-3.9,2-3.9,4,0,3.2,2.8,4.1,4.7,4.6,2.2,.7,2.7,1,2.7,1.9s-1.5,1.2-2.4,1.2c-.8,0-1.8-.3-2.4-.6-.2-.2-.6,0-.7,.2l-1.1,1.7c-.2,.2,0,.6,.2,.7,.8,.5,1.9,.9,3,1.1v1.1c0,.3,.2,.5,.5,.5h2c.3,0,.5-.2,.5-.5v-1.2c2.1-.6,3.5-2.1,3.5-4,0-3.4-2.9-4.3-4.8-4.9-2.1-.6-2.5-.9-2.5-1.7,0-.9,1.4-1.1,2.3-1.1Z"/>
      <path class="uuid-1430f0ab-260b-4cd1-afe7-eee1f1f28171" d="M15.3,0C6.9,0,0,6.9,0,15.3s6.9,15.3,15.3,15.3,15.3-6.9,15.3-15.3S23.8,0,15.3,0Zm0,28.9c-7.5,0-13.6-6.1-13.6-13.6S7.8,1.8,15.3,1.8s13.6,6.1,13.6,13.6-6.1,13.6-13.6,13.6Z"/>
    </g>
  </g>
</svg>