<?xml version="1.0" encoding="UTF-8"?>
<svg id="uuid-4e9576e3-c1fb-4094-8496-cbecbd1bec5c" data-name="Layer 2" xmlns="http://www.w3.org/2000/svg" width="23.1" height="28.6" viewBox="0 0 23.1 28.6">
  <defs>
    <style>
      .uuid-8141c0b6-9d41-4cb3-95c2-529ce77cc4f4 {
        fill: #fff;
      }
    </style>
  </defs>
  <g id="uuid-ca0c2e17-188c-48c4-9e59-7fd518855ed4" data-name="Capa 1">
    <g>
      <path class="uuid-8141c0b6-9d41-4cb3-95c2-529ce77cc4f4" d="M19.1,7c0-.3,0-.6-.2-.9,0-.2-.1-.4-.2-.6-.1-.4-.3-.8-.5-1.2-.1-.3-.3-.6-.5-.8C16.7,1.7,14.8,0,11.4,0c-3.3,0-5.3,1.7-6.4,3.4-.2,.3-.3,.6-.5,.8-.2,.4-.3,.8-.5,1.2,0,.2-.1,.4-.2,.6,0,.3-.1,.6-.2,.9,0,.4,0,.8,0,1.3v4.4l1-.4,1.8-.6v-3.9c0-.9,.2-1.7,.6-2.5,1.5-2.7,4.3-2.5,4.3-2.5,0,0,2.8-.2,4.3,2.5,.4,.8,.6,1.6,.6,2.5v3.9l1.8,.6,1,.4v-4.4c0-.4,0-.9,0-1.3Z"/>
      <path class="uuid-8141c0b6-9d41-4cb3-95c2-529ce77cc4f4" d="M18.1,9.7H5.1c-2.8,0-5.1,2.3-5.1,5.1v8.7c0,2.8,2.3,5.1,5.1,5.1h13c2.8,0,5.1-2.3,5.1-5.1V14.8c0-2.8-2.3-5.1-5.1-5.1Zm-4.8,9.9v4.3c0,.9-.7,1.6-1.6,1.6s-1.6-.7-1.6-1.6v-4.3c-1.2-.6-2.1-1.8-2.1-3.2s1.6-3.6,3.6-3.6,3.6,1.6,3.6,3.6-.9,2.6-1.9,3.2Z"/>
    </g>
  </g>
</svg>