<?xml version="1.0" encoding="UTF-8"?>
<svg id="uuid-afc346eb-c0e4-47af-8080-692e90a8ff24" data-name="Layer 2" xmlns="http://www.w3.org/2000/svg" width="36.7" height="21.5" viewBox="0 0 36.7 21.5">
  <defs>
    <style>
      .uuid-8d2f5f82-3de0-4794-95c2-1b54cdc522b9 {
        fill: #fff;
      }
    </style>
  </defs>
  <g id="uuid-70e882ee-3540-4963-92d0-6db15e93784c" data-name="Capa 1">
    <g>
      <path class="uuid-8d2f5f82-3de0-4794-95c2-1b54cdc522b9" d="M25.7,11.6c3.6,2.5,7.2,.8,8.5,0,2,2.2,2.4,5.5,2.5,6.9h-10.6c-.3-1.4-1-3-2-4.3,.6-1.2,1.2-2.1,1.6-2.6Zm-11.6,3.1c3.6,2.5,7.2,.8,8.5,0,2,2.2,2.4,5.5,2.5,6.9H11.4c.2-3.7,1.9-6,2.7-6.8ZM2.7,11.6c3.6,2.5,7.2,.8,8.5,0,.7,.8,1.2,1.6,1.6,2.5-.7,.8-1.6,2.3-2.2,4.3H0c.2-3.7,1.9-6,2.7-6.9Z"/>
      <path class="uuid-8d2f5f82-3de0-4794-95c2-1b54cdc522b9" d="M26.2,1.5C27.2,.5,28.5,0,29.8,0c2.8,0,5.1,2.3,5.1,5.1,0,1.4-.5,2.6-1.5,3.6-1,1-2.2,1.5-3.6,1.5h0c-2.8,0-5.1-2.3-5.1-5.1,0-1.4,.5-2.6,1.5-3.6Zm-11.6,3.1c1-1,2.2-1.5,3.6-1.5,2.8,0,5.1,2.3,5.1,5.1,0,1.4-.5,2.6-1.5,3.6-1,1-2.2,1.5-3.6,1.5h0c-2.8,0-5.1-2.3-5.1-5.1,0-1.4,.5-2.6,1.5-3.6ZM3.2,1.5C4.2,.5,5.5,0,6.9,0c2.8,0,5.1,2.3,5.1,5.1,0,1.4-.5,2.6-1.5,3.6-1,1-2.2,1.5-3.6,1.5h0c-2.8,0-5.1-2.3-5.1-5.1,0-1.4,.5-2.6,1.5-3.6Z"/>
    </g>
  </g>
</svg>